<svg width="25" height="21" viewBox="0 0 25 21" fill="none" xmlns="http://www.w3.org/2000/svg">
<path d="M17.7702 20.5793H7.31593C6.49293 20.5793 5.65881 20.0063 5.38077 19.2604L0.776424 6.73063C0.209225 5.15225 0.620722 4.42793 1.06559 4.10361C1.51045 3.77928 2.34457 3.58469 3.74589 4.55766L8.08332 7.57387C8.21678 7.64955 8.33912 7.68198 8.42809 7.66036C8.52819 7.62793 8.60604 7.54144 8.66165 7.39009L10.619 2.31982C11.2085 0.806311 12.076 0.579285 12.5431 0.579285C13.0102 0.579285 13.8777 0.806311 14.4671 2.31982L16.4245 7.39009C16.4801 7.53063 16.558 7.62793 16.6581 7.66036C16.7582 7.69279 16.8805 7.66036 17.0028 7.56306L21.0733 4.74144C22.5636 3.70361 23.4311 3.90901 23.9094 4.24415C24.3765 4.59009 24.8102 5.35766 24.1985 7.03333L19.7054 19.2604C19.4273 20.0063 18.5932 20.5793 17.7702 20.5793ZM2.17775 5.53063C2.19999 5.68198 2.24448 5.8982 2.35569 6.17928L6.96004 18.709C7.00453 18.8171 7.20472 18.9577 7.31593 18.9577H17.7702C17.8926 18.9577 18.0928 18.8171 18.1261 18.709L22.6192 6.49279C22.775 6.08198 22.8194 5.8009 22.8306 5.63874C22.6637 5.69279 22.4079 5.81171 22.0409 6.07117L17.9704 8.89279C17.4143 9.27117 16.7582 9.39009 16.1687 9.21711C15.5793 9.04414 15.101 8.59009 14.8564 7.97387L12.899 2.90361C12.7544 2.52523 12.6209 2.34144 12.5431 2.25496C12.4652 2.34144 12.3318 2.52523 12.1872 2.8928L10.2298 7.96306C9.99624 8.57928 9.51801 9.03333 8.91744 9.2063C8.328 9.37928 7.6607 9.26036 7.11574 8.88198L2.77831 5.86577C2.52252 5.69279 2.32233 5.58468 2.17775 5.53063Z" fill="white"/>
</svg>
