<svg width="18" height="18" viewBox="0 0 18 18" fill="none" xmlns="http://www.w3.org/2000/svg">
<path d="M15.336 2.565C13.806 1.08 11.997 0.225 9.9 0V3.258L18 7.92C17.748 5.85 16.857 4.05 15.336 2.565ZM9 18C12.096 18 14.544 16.758 16.353 14.274L13.554 12.6L5.463 17.28C6.588 17.757 7.776 18 9 18ZM9.9 8.469L17.235 12.663C17.631 11.817 17.892 10.926 18 9.999L9.9 5.337V8.469ZM1.692 14.229C2.286 15.048 2.934 15.714 3.645 16.2L11.736 11.61L9 10.035L1.692 14.229ZM8.136 0C7.2 0.081 6.3 0.324 5.4 0.72V10.035L8.136 8.469V0ZM0 9C0 10.251 0.27 11.493 0.801 12.708L3.6 11.052V1.8C1.197 3.6 0 5.985 0 9Z" fill="#3E84FF"/>
</svg>
