<svg width="25" height="24" viewBox="0 0 25 24" fill="none" xmlns="http://www.w3.org/2000/svg">
<path d="M22.1 0H2.9C1.58 0 0.5 1.08 0.5 2.4V24L5.3 19.2H22.1C23.42 19.2 24.5 18.12 24.5 16.8V2.4C24.5 1.08 23.42 0 22.1 0ZM22.1 16.8H4.34L2.9 18.24V2.4H22.1V16.8ZM12.74 4.2C11.66 4.2 10.82 4.44 10.22 4.8C9.5 5.28 9.14 6 9.26 6.84H11.66C11.66 6.48 11.78 6.24 12.02 6.12C12.26 6 12.5 5.88 12.86 5.88C13.22 5.88 13.58 6 13.82 6.24C14.06 6.48 14.18 6.72 14.18 7.08C14.18 7.44 14.06 7.68 13.94 7.92C13.7 8.16 13.46 8.4 13.22 8.52C12.62 8.88 12.14 9.24 11.9 9.48C11.42 9.84 11.3 10.2 11.3 10.8H13.7C13.7 10.44 13.82 10.2 13.82 9.96C13.94 9.72 14.18 9.6 14.42 9.36C15.02 9.12 15.38 8.76 15.74 8.28C16.1 7.8 16.22 7.32 16.22 6.84C16.22 6 15.86 5.28 15.26 4.8C14.78 4.44 13.82 4.2 12.74 4.2ZM11.3 12V14.4H13.7V12H11.3Z" fill="white"/>
</svg>
