<svg width="28" height="28" viewBox="0 0 28 28" fill="none" xmlns="http://www.w3.org/2000/svg">
<ellipse cx="13.9998" cy="14" rx="12.95" ry="13.65" fill="#D9D9D9"/>
<path d="M14 24.08C10.5 24.08 7.406 22.288 5.6 19.6C5.642 16.8 11.2 15.26 14 15.26C16.8 15.26 22.358 16.8 22.4 19.6C20.594 22.288 17.5 24.08 14 24.08ZM14 4.2C15.1139 4.2 16.1822 4.6425 16.9698 5.43015C17.7575 6.2178 18.2 7.28609 18.2 8.4C18.2 9.51391 17.7575 10.5822 16.9698 11.3698C16.1822 12.1575 15.1139 12.6 14 12.6C12.8861 12.6 11.8178 12.1575 11.0302 11.3698C10.2425 10.5822 9.8 9.51391 9.8 8.4C9.8 7.28609 10.2425 6.2178 11.0302 5.43015C11.8178 4.6425 12.8861 4.2 14 4.2ZM14 0C12.1615 0 10.341 0.362121 8.64243 1.06569C6.94387 1.76925 5.40053 2.80048 4.1005 4.1005C1.475 6.72601 0 10.287 0 14C0 17.713 1.475 21.274 4.1005 23.8995C5.40053 25.1995 6.94387 26.2307 8.64243 26.9343C10.341 27.6379 12.1615 28 14 28C17.713 28 21.274 26.525 23.8995 23.8995C26.525 21.274 28 17.713 28 14C28 6.258 21.7 0 14 0Z" fill="#3A4058"/>
</svg>
