<?xml version="1.0" encoding="UTF-8"?>
<svg id="Layer_1" data-name="Layer 1" xmlns="http://www.w3.org/2000/svg" xmlns:xlink="http://www.w3.org/1999/xlink" viewBox="0 0 1378.24 825.69">
  <defs>
    <style>
      .cls-1 {
        fill: url(#linear-gradient-2);
      }

      .cls-2 {
        fill: #fff;
      }

      .cls-3 {
        fill: url(#linear-gradient);
      }
    </style>
    <linearGradient id="linear-gradient" x1="317.2" y1="563.02" x2="666.11" y2="-41.31" gradientTransform="translate(156.78 229.32) rotate(-10.2)" gradientUnits="userSpaceOnUse">
      <stop offset="0" stop-color="#0ff244"/>
      <stop offset=".12" stop-color="#10ea4d"/>
      <stop offset=".31" stop-color="#13d666"/>
      <stop offset=".55" stop-color="#18b590"/>
      <stop offset=".84" stop-color="#1f89c9"/>
      <stop offset="1" stop-color="#246ded"/>
    </linearGradient>
    <linearGradient id="linear-gradient-2" x1="54.93" y1="398.95" x2="1318.81" y2="398.95" gradientTransform="matrix(1, 0, 0, 1, 0, 0)" xlink:href="#linear-gradient"/>
  </defs>
  <circle class="cls-3" cx="686.87" cy="398.95" r="348.85"/>
  <g>
    <path class="cls-2" d="M1026.61,205.47c.07,.12,.14,.24,.21,.36,2.83,5.01,8.04,8.25,13.78,8.66,78.48,5.68,128.38,22.53,133.3,49.88,4.73,26.26-32.74,57.88-99.06,89.31-86.37,40.92-221.64,81.44-376.3,109.28-154.69,27.84-295.61,37.03-390.83,28.76-73.11-6.3-119.25-22.88-123.98-49.13-4.92-27.35,35.96-60.54,107.54-93.23,5.24-2.39,8.99-7.24,9.89-12.92,.02-.14,.04-.27,.07-.41,2.18-13.62-11.36-24.28-24.04-18.88-144.75,61.64-232.33,133.55-221.33,194.7,11.76,65.36,133.27,102.96,308.23,106.42,103.98,2.06,226.83-7.94,356.76-31.33,129.93-23.39,248.55-56.85,345.26-95.03,162.77-64.25,263.54-141.86,251.78-207.22-11.01-61.15-118.17-98-275.32-105.31-13.77-.64-22.74,14.08-15.95,26.08Z"/>
    <path class="cls-1" d="M1167.07,218.88c22.26,4.55,42.13,10.04,59.25,16.41,21.35,7.93,38.05,17.05,49.64,27.09,9.83,8.52,15.66,17.52,17.33,26.76,3.9,21.68-14.4,50.14-51.54,80.15-41.86,33.82-105.76,68.18-184.81,99.39-98.64,38.94-216.38,71.34-340.51,93.68-113.38,20.41-225.91,31.19-325.42,31.19-8.89,0-17.77-.09-26.41-.26-84.96-1.68-156.84-11.61-207.86-28.71-45.27-15.17-72.35-35.47-76.26-57.15-1.66-9.24,.66-19.71,6.91-31.12,7.36-13.45,19.84-27.81,37.08-42.69,13.82-11.93,30.54-24.01,49.81-36.04-13.13,16.43-18.12,32.86-15.13,49.44,7.01,38.95,54.91,61.72,146.42,69.61,23.04,2,48.75,3.01,76.42,3.01,93.41,0,204.41-11.09,321-32.08,151.33-27.24,290.77-67.8,382.58-111.29,83.01-39.35,119.96-77.4,112.95-116.33-2.98-16.58-13.39-30.24-31.43-41.06m-880.09,121.27h0m754.71-160.78c-13.28,0-21.74,14.35-15.09,26.1,.07,.12,.14,.24,.21,.36,2.83,5.01,8.04,8.25,13.78,8.66,78.48,5.68,128.38,22.53,133.3,49.88,4.73,26.26-32.74,57.88-99.06,89.31-86.37,40.91-221.64,81.44-376.3,109.28-118.35,21.3-228.64,31.68-316.57,31.68-27,0-51.88-.98-74.25-2.92-73.11-6.3-119.25-22.88-123.98-49.13-4.92-27.35,35.96-60.54,107.54-93.23,5.24-2.39,8.99-7.24,9.89-12.92,.02-.14,.04-.27,.07-.41,1.79-11.14-6.96-20.31-17.15-20.31-2.26,0-4.59,.45-6.9,1.43-144.74,61.64-232.33,133.55-221.33,194.7,11.76,65.36,133.27,102.96,308.23,106.42,8.83,.17,17.81,.26,26.91,.26,98,0,210.96-10.19,329.85-31.59,129.93-23.39,248.55-56.85,345.26-95.03,162.77-64.25,263.54-141.86,251.78-207.22-11.01-61.15-118.17-98-275.32-105.31-.29-.01-.58-.02-.87-.02h0Z"/>
  </g>
</svg>