<?xml version="1.0" encoding="UTF-8"?>
<svg id="Layer_1" data-name="Layer 1" xmlns="http://www.w3.org/2000/svg" xmlns:xlink="http://www.w3.org/1999/xlink" viewBox="0 0 2319.47 695.13">
  <defs>
    <style>
      .cls-1 {
        fill: #fff;
      }

      .cls-2 {
        fill: none;
        stroke: url(#linear-gradient);
        stroke-linejoin: round;
        stroke-width: 26.08px;
      }
    </style>
    <linearGradient id="linear-gradient" x1="0" y1="347.56" x2="2319.47" y2="347.56" gradientUnits="userSpaceOnUse">
      <stop offset="0" stop-color="#0ff244"/>
      <stop offset=".11" stop-color="#10ea4d"/>
      <stop offset=".31" stop-color="#13d666"/>
      <stop offset=".55" stop-color="#18b590"/>
      <stop offset=".83" stop-color="#1f89c9"/>
      <stop offset=".99" stop-color="#246ded"/>
    </linearGradient>
  </defs>
  <g>
    <path class="cls-2" d="M1011.45,513.24c-2.58,2.19-5.32,3.58-8.19,4.17-2.88,.6-5.61,.89-8.19,.89h-44.99c-3.58,0-6.66-.64-9.24-1.94-2.58-1.29-4.77-3.03-6.55-5.2-1.79-2.18-3.28-4.65-4.47-7.43-1.19-2.77-2.19-5.65-2.98-8.62l-6.26-29.12c-2.98,6.14-7.95,12.62-14.9,19.46-6.95,6.83-15.54,13.12-25.77,18.87-10.23,5.74-22,10.5-35.3,14.26-13.31,3.76-27.81,5.64-43.5,5.64-22.64,0-42.71-4.37-60.18-13.11-17.48-8.74-32.23-20.65-44.24-35.75-12.02-15.09-21.11-32.72-27.26-52.88-6.16-20.16-9.24-41.66-9.24-64.5V162.85c0-7.55,1.64-13.26,4.92-17.13,3.28-3.87,8.49-5.81,15.64-5.81h68.82c8.54,0,14.4,1.44,17.58,4.32,3.17,2.89,4.77,8.5,4.77,16.85v194.15c0,8.55,1.64,16.66,4.92,24.31,3.28,7.66,7.69,14.42,13.26,20.28,5.56,5.87,12.07,10.49,19.51,13.87,7.45,3.38,15.34,5.07,23.69,5.07,7.15,0,14.9-1.19,23.24-3.58,8.34-2.38,16.09-6.11,23.24-11.18,7.15-5.07,13.11-11.58,17.88-19.54,4.77-7.95,7.15-17.5,7.15-28.63V161.97c0-3.38,.64-6.76,1.94-10.14,1.29-3.38,3.23-5.96,5.81-7.76,2.58-1.59,5.01-2.68,7.3-3.28,2.28-.6,4.92-.89,7.9-.89h67.33c8.54,0,14.7,2.09,18.47,6.26,3.77,4.17,5.66,9.73,5.66,16.68V496.26c0,3.78-.85,7.25-2.53,10.43-1.69,3.18-4.02,5.66-7,7.45l1.79-.89Z"/>
    <path class="cls-2" d="M1441.95,513.24c-2.58,2.19-5.32,3.58-8.19,4.17-2.88,.6-5.61,.89-8.19,.89h-44.99c-3.58,0-6.66-.64-9.24-1.94-2.58-1.29-4.77-3.03-6.55-5.2-1.79-2.18-3.28-4.65-4.47-7.43-1.19-2.77-2.19-5.65-2.98-8.62l-6.26-29.12c-2.98,6.14-7.95,12.62-14.9,19.46-6.95,6.83-15.54,13.12-25.77,18.87-10.23,5.74-22,10.5-35.3,14.26-13.31,3.76-27.81,5.64-43.5,5.64-22.64,0-42.71-4.37-60.18-13.11-17.48-8.74-32.23-20.65-44.24-35.75-12.02-15.09-21.11-32.72-27.26-52.88-6.16-20.16-9.24-41.66-9.24-64.5V162.85c0-7.55,1.64-13.26,4.92-17.13,3.28-3.87,8.49-5.81,15.64-5.81h68.82c8.54,0,14.4,1.44,17.58,4.32,3.17,2.89,4.77,8.5,4.77,16.85v194.15c0,8.55,1.64,16.66,4.92,24.31,3.28,7.66,7.69,14.42,13.26,20.28,5.56,5.87,12.07,10.49,19.51,13.87,7.45,3.38,15.34,5.07,23.69,5.07,7.15,0,14.9-1.19,23.24-3.58,8.34-2.38,16.09-6.11,23.24-11.18,7.15-5.07,13.11-11.58,17.88-19.54,4.77-7.95,7.15-17.5,7.15-28.63V161.97c0-3.38,.64-6.76,1.94-10.14,1.29-3.38,3.23-5.96,5.81-7.76,2.58-1.59,5.01-2.68,7.3-3.28,2.28-.6,4.92-.89,7.9-.89h67.33c8.54,0,14.7,2.09,18.47,6.26,3.77,4.17,5.66,9.73,5.66,16.68V496.26c0,3.78-.85,7.25-2.53,10.43-1.69,3.18-4.02,5.66-7,7.45l1.79-.89Z"/>
  </g>
  <g>
    <path class="cls-1" d="M81.33,375.27c3.38,2.78,7.69,6.51,12.96,11.17,5.26,4.67,11.27,9.29,18.02,13.85,10.13,6.75,20.16,12.02,30.09,15.79,9.93,3.77,20.36,5.66,31.28,5.66,10.13,0,18.62-1.14,25.47-3.42,6.85-2.28,12.26-5.31,16.24-9.08,3.97-3.77,6.8-8.13,8.49-13.09,1.69-4.96,2.53-10.22,2.53-15.78,0-6.15-2.34-11.66-7-16.52-4.67-4.86-10.38-9.18-17.13-12.95-6.75-3.77-13.81-6.99-21.15-9.67-7.35-2.68-13.7-4.91-19.07-6.7-23.83-8.33-44.69-17.31-62.56-26.94-17.88-9.63-32.77-20.34-44.69-32.15-11.92-11.81-20.86-24.81-26.81-39-5.96-14.19-8.94-30.02-8.94-47.48,0-18.45,3.72-35.22,11.17-50.31,7.45-15.08,18.07-27.98,31.88-38.7,13.8-10.72,30.44-19,49.9-24.85,19.46-5.86,41.21-8.78,65.25-8.78,18.07,0,35.4,2.04,51.99,6.11,16.58,4.07,32.92,10.58,49.01,19.51,6.75,3.98,13.16,8.1,19.22,12.36,6.06,4.27,11.37,8.39,15.94,12.36,4.57,3.98,8.19,7.75,10.87,11.32,2.68,3.58,4.02,6.66,4.02,9.24s-.65,4.97-1.94,7.15c-1.29,2.19-3.23,4.67-5.81,7.45l-45.58,48.56c-3.38,3.38-6.75,5.06-10.13,5.06-2.78,0-5.32-.79-7.6-2.38-2.29-1.59-4.82-3.58-7.6-5.96l-2.68-2.38c-3.98-3.37-8.39-6.85-13.26-10.43-4.87-3.58-10.08-6.8-15.64-9.68-5.56-2.88-11.42-5.26-17.58-7.15-6.16-1.89-12.42-2.83-18.77-2.83s-12.71,.55-18.47,1.64c-5.76,1.09-10.83,2.83-15.19,5.21-4.37,2.38-7.85,5.51-10.43,9.38-2.58,3.87-3.87,8.59-3.87,14.15s1.39,10.38,4.17,14.45c2.78,4.07,6.95,7.85,12.51,11.32,5.56,3.48,12.46,6.75,20.71,9.83,8.24,3.08,17.82,6.41,28.75,9.98,21.05,6.95,40.47,14.25,58.24,21.9,17.77,7.65,33.12,16.68,46.03,27.11,12.91,10.43,22.99,22.89,30.24,37.39,7.25,14.5,10.87,32.08,10.87,52.73,0,21.85-4.47,41.66-13.41,59.44-8.94,17.78-21.2,32.92-36.79,45.43-15.59,12.51-33.92,22.19-54.97,29.05-21.05,6.85-43.7,10.28-67.93,10.28-22.84,0-45.28-4.09-67.33-12.25-22.05-8.16-42.6-19.12-61.67-32.87-7.95-5.78-14.65-11.46-20.11-17.03-5.47-5.58-9.79-10.06-12.96-13.44l-.89-.9c-.2-.4-.4-.64-.6-.74-.2-.1-.4-.25-.6-.45-.2-.4-.4-.64-.6-.74-.2-.1-.4-.25-.6-.45-4.57-4.98-6.85-8.97-6.85-11.95,0-3.38,2.28-7.17,6.85-11.35l51.54-49.16c4.17-2.98,7.55-4.47,10.13-4.47,1.79,0,3.67,.6,5.66,1.79,1.98,1.19,4.37,2.98,7.15,5.36Z"/>
    <path class="cls-1" d="M427.22,80.92c0-6.15,2.03-10.77,6.11-13.85,4.07-3.08,9.88-6,17.43-8.79l67.63-23.54c.99-.2,1.94-.3,2.83-.3h2.53c7.35,0,12.26,2.14,14.75,6.41,2.48,4.27,3.72,9.88,3.72,16.83l-.3,81.93h40.82c6.35,0,11.52,1.89,15.49,5.66,3.97,3.77,5.96,9.44,5.96,16.98v57.5c0,8.34-1.99,14.45-5.96,18.32-3.98,3.87-9.14,5.81-15.49,5.81h-40.82l.3,251.45c0,7.55-2.19,13.26-6.55,17.13-4.37,3.87-10.43,5.81-18.17,5.81h-67.33c-15.3,0-22.94-7.64-22.94-22.94l-.3-251.45h-30.69c-15.3,0-22.94-8.04-22.94-24.13v-57.5c0-15.09,7.64-22.64,22.94-22.64h30.69l.3-58.69Z"/>
    <path class="cls-1" d="M1521.19,50.23c0-3.37,.1-6.45,.3-9.24,.2-2.78,1.04-5.16,2.53-7.15,1.49-1.98,3.82-3.52,7-4.62,3.17-1.09,7.64-1.64,13.41-1.64h71.2c3.77,0,6.9,.65,9.39,1.94,2.48,1.29,4.47,2.93,5.96,4.92,1.49,1.99,2.48,4.12,2.98,6.41,.49,2.29,.74,4.42,.74,6.4v220.47l107.25-119.17c5.16-5.76,11.32-8.64,18.47-8.64h91.46c10.92,0,16.39,4.27,16.39,12.81,0,2.19-.35,3.98-1.04,5.36-.7,1.39-2.14,3.38-4.32,5.96l-122.45,129.3,154.03,197.82h-.6c2.58,2.58,4.42,5.21,5.51,7.9,1.09,2.68,1.64,5.12,1.64,7.3,0,4.57-1.24,7.7-3.72,9.39-2.49,1.69-6.21,2.53-11.17,2.53h-100.7c-3.38,0-6.55-1.29-9.53-3.87-2.98-2.58-6.26-6.45-9.83-11.62l-97.42-137.94-33.07,34.26v96.23c0,1.59-.25,3.68-.74,6.26-.5,2.58-1.49,5.12-2.98,7.6-1.49,2.49-3.53,4.62-6.11,6.41-2.58,1.79-5.96,2.68-10.13,2.68h-74.78c-3.58,0-6.66-.94-9.24-2.83-2.58-1.89-4.62-4.02-6.11-6.4-1.49-2.38-2.58-4.62-3.28-6.7-.7-2.09-1.04-3.32-1.04-3.72V50.23Z"/>
    <path class="cls-1" d="M1919.22,168.51c-3.18-7.94-3.23-14.75-.15-20.41,3.08-5.66,9.88-8.49,20.41-8.49h73.59c4.96,0,9.03,1.54,12.21,4.62,3.17,3.08,5.56,6.9,7.15,11.47l84.31,239.83,82.53-239.83c2.18-6.35,4.96-10.62,8.34-12.81,3.37-2.18,8.04-3.28,14-3.28h76.57c5.56,0,9.93,.75,13.11,2.23,3.17,1.49,5.41,3.48,6.7,5.96,1.29,2.49,1.74,5.27,1.34,8.34-.4,3.08-1.19,6.11-2.38,9.09-7.55,18.67-15.79,39.08-24.73,61.22-8.94,22.15-18.22,45.19-27.86,69.12-9.64,23.94-19.42,48.26-29.35,72.99-9.93,24.73-19.62,49.01-29.05,72.84-9.44,23.83-18.52,46.73-27.26,68.67-8.74,21.94-16.73,42.11-23.98,60.48-7.25,18.37-13.56,34.51-18.92,48.41-5.36,13.9-9.44,24.63-12.21,32.18l.89-1.49c-1.39,5.36-3.87,9.68-7.45,12.96-3.58,3.28-7.95,4.92-13.11,4.92h-68.82c-8.94,0-15.05-1.74-18.32-5.21-3.28-3.48-4.92-8.59-4.92-15.34,0-2.58,.34-4.57,1.04-5.96,.69-1.39,1.24-2.29,1.64-2.68l46.77-121.55-142.11-348.28Z"/>
  </g>
</svg>